<svg width="12" height="4" viewBox="0 0 12 4" fill="none" xmlns="http://www.w3.org/2000/svg">
<path d="M8.28173 0.799622H6.15569H3.90605C3.46106 0.799622 3.1644 1.04423 3.11496 1.38668C3.09024 1.50899 3.09024 1.63129 3.09024 1.63129H8.89977C8.89977 1.63129 8.89977 1.55791 8.92449 1.48453C8.99865 1.11761 8.85032 0.799622 8.28173 0.799622Z" fill="#DD0000"/>
<path d="M8.89989 1.94922C8.89989 1.94922 8.87517 2.07152 8.87517 2.19383C8.85045 2.43844 8.65267 2.63412 8.30657 2.63412H7.07051L6.89746 3.73487H5.9086L6.13109 1.94922H8.89989Z" fill="#DD0000"/>
<path d="M0.370767 0.799622H3.01596L2.91707 1.63129H0.271881L0.370767 0.799622Z" fill="#DD0000"/>
<path d="M0.222492 1.94922L0 3.73487H2.64519L2.74407 2.95212H1.08774L1.13718 2.60966H2.79352L2.86768 1.94922H0.222492Z" fill="#DD0000"/>
<path d="M9.22105 0.799622H11.3718C11.7179 0.799622 12.064 0.946387 11.9898 1.48453C11.9651 1.58237 11.9651 1.60683 11.9651 1.60683H9.12216L9.22105 0.799622Z" fill="#DD0000"/>
<path d="M8.87491 3.73473H9.86376L10.0863 1.94908L9.0974 1.92462L8.87491 3.73473Z" fill="#DD0000"/>
<path d="M10.7291 3.73473H11.718L11.9652 1.94908L10.9763 1.92462L10.7291 3.73473Z" fill="#DD0000"/>
<path d="M5.24093 1.94922C5.06788 1.94922 3.41155 1.94922 3.06545 1.94922C2.99129 2.41398 3.2385 2.63412 3.55988 2.63412C3.73293 2.63412 4.89483 2.63412 4.89483 2.63412L4.84539 2.97658H2.91712L2.84296 3.73487C2.84296 3.73487 4.94427 3.73487 5.01844 3.73487C5.0926 3.73487 5.58703 3.71041 5.73536 3.31903C5.7848 3.19673 5.83424 2.73197 5.85897 2.63412C5.93313 2.07152 5.53759 1.94922 5.24093 1.94922Z" fill="#DD0000"/>
</svg>
