<svg width="16" height="5" viewBox="0 0 16 5" fill="none" xmlns="http://www.w3.org/2000/svg">
<path d="M11.0423 0.399414H8.20757H5.20804C4.61473 0.399414 4.21919 0.72556 4.15326 1.18216C4.1203 1.34524 4.1203 1.50831 4.1203 1.50831H11.8663C11.8663 1.50831 11.8663 1.41047 11.8993 1.31262C11.9982 0.823404 11.8004 0.399414 11.0423 0.399414Z" fill="#DD0000"/>
<path d="M11.8665 1.93213C11.8665 1.93213 11.8335 2.0952 11.8335 2.25827C11.8006 2.58442 11.5369 2.84534 11.0754 2.84534H9.42732L9.19659 4.31299H7.87811L8.17477 1.93213H11.8665Z" fill="#DD0000"/>
<path d="M0.494335 0.399414H4.02125L3.88941 1.50831H0.362488L0.494335 0.399414Z" fill="#DD0000"/>
<path d="M0.296657 1.93213L0 4.31299H3.52692L3.65877 3.26933H1.45032L1.51625 2.81272H3.72469L3.82358 1.93213H0.296657Z" fill="#DD0000"/>
<path d="M12.2948 0.399414H15.1624C15.6239 0.399414 16.0854 0.595102 15.9865 1.31262C15.9535 1.44308 15.9535 1.4757 15.9535 1.4757H12.1629L12.2948 0.399414Z" fill="#DD0000"/>
<path d="M11.8332 4.31289H13.1517L13.4483 1.93203L12.1298 1.89941L11.8332 4.31289Z" fill="#DD0000"/>
<path d="M14.3055 4.31289H15.624L15.9536 1.93203L14.6351 1.89941L14.3055 4.31289Z" fill="#DD0000"/>
<path d="M6.98795 1.93213C6.75722 1.93213 4.54877 1.93213 4.08731 1.93213C3.98842 2.55181 4.31804 2.84534 4.74654 2.84534C4.97728 2.84534 6.52648 2.84534 6.52648 2.84534L6.46056 3.30194H3.88954L3.79065 4.31299C3.79065 4.31299 6.59241 4.31299 6.69129 4.31299C6.79018 4.31299 7.44942 4.28038 7.64719 3.75855C7.71311 3.59547 7.77903 2.9758 7.812 2.84534C7.91088 2.0952 7.38349 1.93213 6.98795 1.93213Z" fill="#DD0000"/>
</svg>
